%TF.GenerationSoftware,KiCad,Pcbnew,(6.0.4)*%
%TF.CreationDate,2022-05-29T20:56:59+05:30*%
%TF.ProjectId,bike turning signal indicator circuit,62696b65-2074-4757-926e-696e67207369,rev?*%
%TF.SameCoordinates,Original*%
%TF.FileFunction,Legend,Top*%
%TF.FilePolarity,Positive*%
%FSLAX46Y46*%
G04 Gerber Fmt 4.6, Leading zero omitted, Abs format (unit mm)*
G04 Created by KiCad (PCBNEW (6.0.4)) date 2022-05-29 20:56:59*
%MOMM*%
%LPD*%
G01*
G04 APERTURE LIST*
%ADD10C,0.150000*%
%ADD11C,0.120000*%
G04 APERTURE END LIST*
D10*
%TO.C,SW1*%
X125666666Y-78984761D02*
X125809523Y-79032380D01*
X126047619Y-79032380D01*
X126142857Y-78984761D01*
X126190476Y-78937142D01*
X126238095Y-78841904D01*
X126238095Y-78746666D01*
X126190476Y-78651428D01*
X126142857Y-78603809D01*
X126047619Y-78556190D01*
X125857142Y-78508571D01*
X125761904Y-78460952D01*
X125714285Y-78413333D01*
X125666666Y-78318095D01*
X125666666Y-78222857D01*
X125714285Y-78127619D01*
X125761904Y-78080000D01*
X125857142Y-78032380D01*
X126095238Y-78032380D01*
X126238095Y-78080000D01*
X126571428Y-78032380D02*
X126809523Y-79032380D01*
X127000000Y-78318095D01*
X127190476Y-79032380D01*
X127428571Y-78032380D01*
X128333333Y-79032380D02*
X127761904Y-79032380D01*
X128047619Y-79032380D02*
X128047619Y-78032380D01*
X127952380Y-78175238D01*
X127857142Y-78270476D01*
X127761904Y-78318095D01*
%TO.C,D3*%
X112291904Y-58492380D02*
X112291904Y-57492380D01*
X112530000Y-57492380D01*
X112672857Y-57540000D01*
X112768095Y-57635238D01*
X112815714Y-57730476D01*
X112863333Y-57920952D01*
X112863333Y-58063809D01*
X112815714Y-58254285D01*
X112768095Y-58349523D01*
X112672857Y-58444761D01*
X112530000Y-58492380D01*
X112291904Y-58492380D01*
X113196666Y-57492380D02*
X113815714Y-57492380D01*
X113482380Y-57873333D01*
X113625238Y-57873333D01*
X113720476Y-57920952D01*
X113768095Y-57968571D01*
X113815714Y-58063809D01*
X113815714Y-58301904D01*
X113768095Y-58397142D01*
X113720476Y-58444761D01*
X113625238Y-58492380D01*
X113339523Y-58492380D01*
X113244285Y-58444761D01*
X113196666Y-58397142D01*
X106418095Y-59212380D02*
X106418095Y-58212380D01*
X106989523Y-59212380D02*
X106560952Y-58640952D01*
X106989523Y-58212380D02*
X106418095Y-58783809D01*
%TO.C,R3*%
X129993333Y-57892380D02*
X129660000Y-57416190D01*
X129421904Y-57892380D02*
X129421904Y-56892380D01*
X129802857Y-56892380D01*
X129898095Y-56940000D01*
X129945714Y-56987619D01*
X129993333Y-57082857D01*
X129993333Y-57225714D01*
X129945714Y-57320952D01*
X129898095Y-57368571D01*
X129802857Y-57416190D01*
X129421904Y-57416190D01*
X130326666Y-56892380D02*
X130945714Y-56892380D01*
X130612380Y-57273333D01*
X130755238Y-57273333D01*
X130850476Y-57320952D01*
X130898095Y-57368571D01*
X130945714Y-57463809D01*
X130945714Y-57701904D01*
X130898095Y-57797142D01*
X130850476Y-57844761D01*
X130755238Y-57892380D01*
X130469523Y-57892380D01*
X130374285Y-57844761D01*
X130326666Y-57797142D01*
%TO.C,D4*%
X114831904Y-73692380D02*
X114831904Y-72692380D01*
X115070000Y-72692380D01*
X115212857Y-72740000D01*
X115308095Y-72835238D01*
X115355714Y-72930476D01*
X115403333Y-73120952D01*
X115403333Y-73263809D01*
X115355714Y-73454285D01*
X115308095Y-73549523D01*
X115212857Y-73644761D01*
X115070000Y-73692380D01*
X114831904Y-73692380D01*
X116260476Y-73025714D02*
X116260476Y-73692380D01*
X116022380Y-72644761D02*
X115784285Y-73359047D01*
X116403333Y-73359047D01*
%TO.C,R2*%
X136993333Y-82712380D02*
X136660000Y-82236190D01*
X136421904Y-82712380D02*
X136421904Y-81712380D01*
X136802857Y-81712380D01*
X136898095Y-81760000D01*
X136945714Y-81807619D01*
X136993333Y-81902857D01*
X136993333Y-82045714D01*
X136945714Y-82140952D01*
X136898095Y-82188571D01*
X136802857Y-82236190D01*
X136421904Y-82236190D01*
X137374285Y-81807619D02*
X137421904Y-81760000D01*
X137517142Y-81712380D01*
X137755238Y-81712380D01*
X137850476Y-81760000D01*
X137898095Y-81807619D01*
X137945714Y-81902857D01*
X137945714Y-81998095D01*
X137898095Y-82140952D01*
X137326666Y-82712380D01*
X137945714Y-82712380D01*
%TO.C,D1*%
X107211904Y-73692380D02*
X107211904Y-72692380D01*
X107450000Y-72692380D01*
X107592857Y-72740000D01*
X107688095Y-72835238D01*
X107735714Y-72930476D01*
X107783333Y-73120952D01*
X107783333Y-73263809D01*
X107735714Y-73454285D01*
X107688095Y-73549523D01*
X107592857Y-73644761D01*
X107450000Y-73692380D01*
X107211904Y-73692380D01*
X108735714Y-73692380D02*
X108164285Y-73692380D01*
X108450000Y-73692380D02*
X108450000Y-72692380D01*
X108354761Y-72835238D01*
X108259523Y-72930476D01*
X108164285Y-72978095D01*
%TO.C,D2*%
X111021904Y-66112380D02*
X111021904Y-65112380D01*
X111260000Y-65112380D01*
X111402857Y-65160000D01*
X111498095Y-65255238D01*
X111545714Y-65350476D01*
X111593333Y-65540952D01*
X111593333Y-65683809D01*
X111545714Y-65874285D01*
X111498095Y-65969523D01*
X111402857Y-66064761D01*
X111260000Y-66112380D01*
X111021904Y-66112380D01*
X111974285Y-65207619D02*
X112021904Y-65160000D01*
X112117142Y-65112380D01*
X112355238Y-65112380D01*
X112450476Y-65160000D01*
X112498095Y-65207619D01*
X112545714Y-65302857D01*
X112545714Y-65398095D01*
X112498095Y-65540952D01*
X111926666Y-66112380D01*
X112545714Y-66112380D01*
X105148095Y-66832380D02*
X105148095Y-65832380D01*
X105719523Y-66832380D02*
X105290952Y-66260952D01*
X105719523Y-65832380D02*
X105148095Y-66403809D01*
%TO.C,C1*%
X136203333Y-65227142D02*
X136155714Y-65274761D01*
X136012857Y-65322380D01*
X135917619Y-65322380D01*
X135774761Y-65274761D01*
X135679523Y-65179523D01*
X135631904Y-65084285D01*
X135584285Y-64893809D01*
X135584285Y-64750952D01*
X135631904Y-64560476D01*
X135679523Y-64465238D01*
X135774761Y-64370000D01*
X135917619Y-64322380D01*
X136012857Y-64322380D01*
X136155714Y-64370000D01*
X136203333Y-64417619D01*
X137155714Y-65322380D02*
X136584285Y-65322380D01*
X136870000Y-65322380D02*
X136870000Y-64322380D01*
X136774761Y-64465238D01*
X136679523Y-64560476D01*
X136584285Y-64608095D01*
%TO.C,U1*%
X120512380Y-69341904D02*
X121321904Y-69341904D01*
X121417142Y-69294285D01*
X121464761Y-69246666D01*
X121512380Y-69151428D01*
X121512380Y-68960952D01*
X121464761Y-68865714D01*
X121417142Y-68818095D01*
X121321904Y-68770476D01*
X120512380Y-68770476D01*
X121512380Y-67770476D02*
X121512380Y-68341904D01*
X121512380Y-68056190D02*
X120512380Y-68056190D01*
X120655238Y-68151428D01*
X120750476Y-68246666D01*
X120798095Y-68341904D01*
%TO.C,B1*%
X152328571Y-63274761D02*
X152376190Y-63131904D01*
X152423809Y-63084285D01*
X152519047Y-63036666D01*
X152661904Y-63036666D01*
X152757142Y-63084285D01*
X152804761Y-63131904D01*
X152852380Y-63227142D01*
X152852380Y-63608095D01*
X151852380Y-63608095D01*
X151852380Y-63274761D01*
X151900000Y-63179523D01*
X151947619Y-63131904D01*
X152042857Y-63084285D01*
X152138095Y-63084285D01*
X152233333Y-63131904D01*
X152280952Y-63179523D01*
X152328571Y-63274761D01*
X152328571Y-63608095D01*
X152852380Y-62084285D02*
X152852380Y-62655714D01*
X152852380Y-62370000D02*
X151852380Y-62370000D01*
X151995238Y-62465238D01*
X152090476Y-62560476D01*
X152138095Y-62655714D01*
%TO.C,R1*%
X114133333Y-87792380D02*
X113800000Y-87316190D01*
X113561904Y-87792380D02*
X113561904Y-86792380D01*
X113942857Y-86792380D01*
X114038095Y-86840000D01*
X114085714Y-86887619D01*
X114133333Y-86982857D01*
X114133333Y-87125714D01*
X114085714Y-87220952D01*
X114038095Y-87268571D01*
X113942857Y-87316190D01*
X113561904Y-87316190D01*
X115085714Y-87792380D02*
X114514285Y-87792380D01*
X114800000Y-87792380D02*
X114800000Y-86792380D01*
X114704761Y-86935238D01*
X114609523Y-87030476D01*
X114514285Y-87078095D01*
D11*
%TO.C,SW1*%
X124600000Y-79780000D02*
X124600000Y-80780000D01*
X125200000Y-79780000D02*
X124600000Y-79780000D01*
X126000000Y-82580000D02*
X128000000Y-82580000D01*
X129400000Y-79780000D02*
X129400000Y-80780000D01*
X128800000Y-79780000D02*
X129400000Y-79780000D01*
%TO.C,D3*%
X109110000Y-62880000D02*
X116950000Y-62880000D01*
X116950000Y-59040000D02*
X109110000Y-59040000D01*
X109110000Y-59040000D02*
X109110000Y-62880000D01*
X110490000Y-59040000D02*
X110490000Y-62880000D01*
X108120000Y-60960000D02*
X109110000Y-60960000D01*
X117940000Y-60960000D02*
X116950000Y-60960000D01*
X110370000Y-59040000D02*
X110370000Y-62880000D01*
X110250000Y-59040000D02*
X110250000Y-62880000D01*
X116950000Y-62880000D02*
X116950000Y-59040000D01*
%TO.C,R3*%
X126320000Y-60320000D02*
X134000000Y-60320000D01*
X136480000Y-58440000D02*
X136480000Y-59220000D01*
X126320000Y-60920000D02*
X134000000Y-60920000D01*
X126320000Y-61160000D02*
X134000000Y-61160000D01*
X126320000Y-61760000D02*
X134000000Y-61760000D01*
X126320000Y-59960000D02*
X126320000Y-61880000D01*
X126320000Y-61040000D02*
X134000000Y-61040000D01*
X126320000Y-60680000D02*
X134000000Y-60680000D01*
X126320000Y-60560000D02*
X134000000Y-60560000D01*
X123840000Y-58440000D02*
X136480000Y-58440000D01*
X126320000Y-60200000D02*
X134000000Y-60200000D01*
X126320000Y-61400000D02*
X134000000Y-61400000D01*
X136480000Y-63480000D02*
X136480000Y-62700000D01*
X126320000Y-61520000D02*
X134000000Y-61520000D01*
X123840000Y-62700000D02*
X123840000Y-63480000D01*
X134000000Y-59960000D02*
X134000000Y-61880000D01*
X126320000Y-60800000D02*
X134000000Y-60800000D01*
X126320000Y-60440000D02*
X134000000Y-60440000D01*
X123840000Y-59220000D02*
X123840000Y-58440000D01*
X126320000Y-61880000D02*
X134000000Y-61880000D01*
X126320000Y-61640000D02*
X134000000Y-61640000D01*
X126320000Y-60080000D02*
X134000000Y-60080000D01*
X123840000Y-63480000D02*
X136480000Y-63480000D01*
X126320000Y-61280000D02*
X134000000Y-61280000D01*
X126320000Y-59960000D02*
X134000000Y-59960000D01*
%TO.C,D4*%
X114010000Y-77280000D02*
X114010000Y-77436000D01*
X114010000Y-74964000D02*
X114010000Y-75120000D01*
X114529039Y-77280000D02*
G75*
G03*
X116611130Y-77279837I1040961J1080000D01*
G01*
X117242335Y-75121392D02*
G75*
G03*
X114010000Y-74964484I-1672335J-1078608D01*
G01*
X114010000Y-77435516D02*
G75*
G03*
X117242335Y-77278608I1560000J1235516D01*
G01*
X116611130Y-75120163D02*
G75*
G03*
X114529039Y-75120000I-1041130J-1079837D01*
G01*
%TO.C,R2*%
X141000000Y-78540000D02*
X133320000Y-78540000D01*
X141000000Y-79740000D02*
X133320000Y-79740000D01*
X141000000Y-79740000D02*
X141000000Y-77820000D01*
X141000000Y-79620000D02*
X133320000Y-79620000D01*
X141000000Y-79260000D02*
X133320000Y-79260000D01*
X141000000Y-77940000D02*
X133320000Y-77940000D01*
X141000000Y-77820000D02*
X133320000Y-77820000D01*
X130840000Y-76220000D02*
X130840000Y-77000000D01*
X141000000Y-78420000D02*
X133320000Y-78420000D01*
X130840000Y-81260000D02*
X130840000Y-80480000D01*
X141000000Y-78180000D02*
X133320000Y-78180000D01*
X141000000Y-78060000D02*
X133320000Y-78060000D01*
X141000000Y-78300000D02*
X133320000Y-78300000D01*
X141000000Y-79140000D02*
X133320000Y-79140000D01*
X141000000Y-78780000D02*
X133320000Y-78780000D01*
X141000000Y-78900000D02*
X133320000Y-78900000D01*
X133320000Y-79740000D02*
X133320000Y-77820000D01*
X143480000Y-77000000D02*
X143480000Y-76220000D01*
X143480000Y-81260000D02*
X130840000Y-81260000D01*
X141000000Y-78660000D02*
X133320000Y-78660000D01*
X143480000Y-80480000D02*
X143480000Y-81260000D01*
X141000000Y-79380000D02*
X133320000Y-79380000D01*
X141000000Y-79020000D02*
X133320000Y-79020000D01*
X143480000Y-76220000D02*
X130840000Y-76220000D01*
X141000000Y-79500000D02*
X133320000Y-79500000D01*
%TO.C,D1*%
X106390000Y-77280000D02*
X106390000Y-77436000D01*
X106390000Y-74964000D02*
X106390000Y-75120000D01*
X106909039Y-77280000D02*
G75*
G03*
X108991130Y-77279837I1040961J1080000D01*
G01*
X109622335Y-75121392D02*
G75*
G03*
X106390000Y-74964484I-1672335J-1078608D01*
G01*
X108991130Y-75120163D02*
G75*
G03*
X106909039Y-75120000I-1041130J-1079837D01*
G01*
X106390000Y-77435516D02*
G75*
G03*
X109622335Y-77278608I1560000J1235516D01*
G01*
%TO.C,D2*%
X116670000Y-68580000D02*
X115680000Y-68580000D01*
X115680000Y-70500000D02*
X115680000Y-66660000D01*
X106850000Y-68580000D02*
X107840000Y-68580000D01*
X107840000Y-66660000D02*
X107840000Y-70500000D01*
X109220000Y-66660000D02*
X109220000Y-70500000D01*
X107840000Y-70500000D02*
X115680000Y-70500000D01*
X115680000Y-66660000D02*
X107840000Y-66660000D01*
X109100000Y-66660000D02*
X109100000Y-70500000D01*
X108980000Y-66660000D02*
X108980000Y-70500000D01*
%TO.C,C1*%
X137451000Y-66155000D02*
X137451000Y-69879000D01*
X141331000Y-69890000D02*
X141331000Y-72350000D01*
X137331000Y-66130000D02*
X137331000Y-69879000D01*
X130890354Y-68245000D02*
X131890354Y-68245000D01*
X137971000Y-72361000D02*
X137971000Y-75944000D01*
X137971000Y-66296000D02*
X137971000Y-69879000D01*
X141291000Y-69742000D02*
X141291000Y-72498000D01*
X140171000Y-67728000D02*
X140171000Y-74512000D01*
X136730000Y-66052000D02*
X136730000Y-76188000D01*
X138531000Y-72361000D02*
X138531000Y-75723000D01*
X141091000Y-69176000D02*
X141091000Y-73064000D01*
X136490000Y-66041000D02*
X136490000Y-76199000D01*
X137451000Y-72361000D02*
X137451000Y-76085000D01*
X141451000Y-70521000D02*
X141451000Y-71719000D01*
X138451000Y-72361000D02*
X138451000Y-75759000D01*
X140891000Y-68755000D02*
X140891000Y-73485000D01*
X137851000Y-66258000D02*
X137851000Y-69879000D01*
X140411000Y-68014000D02*
X140411000Y-74226000D01*
X139171000Y-66873000D02*
X139171000Y-69879000D01*
X137611000Y-72361000D02*
X137611000Y-76048000D01*
X139251000Y-66926000D02*
X139251000Y-69879000D01*
X138371000Y-66446000D02*
X138371000Y-69879000D01*
X139331000Y-72361000D02*
X139331000Y-75258000D01*
X141411000Y-70258000D02*
X141411000Y-71982000D01*
X138931000Y-72361000D02*
X138931000Y-75515000D01*
X136810000Y-66058000D02*
X136810000Y-76182000D01*
X138251000Y-66397000D02*
X138251000Y-69879000D01*
X140251000Y-67819000D02*
X140251000Y-74421000D01*
X137891000Y-72361000D02*
X137891000Y-75970000D01*
X140651000Y-68350000D02*
X140651000Y-73890000D01*
X137771000Y-66235000D02*
X137771000Y-69879000D01*
X137211000Y-72361000D02*
X137211000Y-76131000D01*
X139891000Y-67441000D02*
X139891000Y-74799000D01*
X139731000Y-67296000D02*
X139731000Y-74944000D01*
X136770000Y-66055000D02*
X136770000Y-76185000D01*
X138171000Y-66366000D02*
X138171000Y-69879000D01*
X139411000Y-67040000D02*
X139411000Y-75200000D01*
X139971000Y-67519000D02*
X139971000Y-74721000D01*
X140011000Y-67559000D02*
X140011000Y-74681000D01*
X138131000Y-72361000D02*
X138131000Y-75888000D01*
X138491000Y-72361000D02*
X138491000Y-75741000D01*
X136930000Y-66070000D02*
X136930000Y-69879000D01*
X138491000Y-66499000D02*
X138491000Y-69879000D01*
X138571000Y-66536000D02*
X138571000Y-69879000D01*
X139251000Y-72361000D02*
X139251000Y-75314000D01*
X139811000Y-67367000D02*
X139811000Y-74873000D01*
X137171000Y-66102000D02*
X137171000Y-69879000D01*
X140571000Y-68231000D02*
X140571000Y-74009000D01*
X137931000Y-72361000D02*
X137931000Y-75957000D01*
X139211000Y-72361000D02*
X139211000Y-75341000D01*
X139371000Y-67010000D02*
X139371000Y-75230000D01*
X136570000Y-66043000D02*
X136570000Y-76197000D01*
X139571000Y-67163000D02*
X139571000Y-75077000D01*
X136850000Y-66062000D02*
X136850000Y-76178000D01*
X136930000Y-72361000D02*
X136930000Y-76170000D01*
X140211000Y-67773000D02*
X140211000Y-74467000D01*
X138731000Y-72361000D02*
X138731000Y-75624000D01*
X140451000Y-68066000D02*
X140451000Y-74174000D01*
X139291000Y-72361000D02*
X139291000Y-75286000D01*
X137211000Y-66109000D02*
X137211000Y-69879000D01*
X140971000Y-68911000D02*
X140971000Y-73329000D01*
X137491000Y-72361000D02*
X137491000Y-76076000D01*
X136410000Y-66040000D02*
X136410000Y-76200000D01*
X138291000Y-66413000D02*
X138291000Y-69879000D01*
X136530000Y-66042000D02*
X136530000Y-76198000D01*
X138851000Y-66680000D02*
X138851000Y-69879000D01*
X140491000Y-68120000D02*
X140491000Y-74120000D01*
X138131000Y-66352000D02*
X138131000Y-69879000D01*
X139611000Y-67195000D02*
X139611000Y-75045000D01*
X139131000Y-66847000D02*
X139131000Y-69879000D01*
X138211000Y-72361000D02*
X138211000Y-75858000D01*
X138611000Y-72361000D02*
X138611000Y-75684000D01*
X141371000Y-70058000D02*
X141371000Y-72182000D01*
X138771000Y-72361000D02*
X138771000Y-75603000D01*
X141131000Y-69274000D02*
X141131000Y-72966000D01*
X137291000Y-66123000D02*
X137291000Y-69879000D01*
X137251000Y-66116000D02*
X137251000Y-69879000D01*
X136610000Y-66045000D02*
X136610000Y-76195000D01*
X136690000Y-66050000D02*
X136690000Y-76190000D01*
X131390354Y-67745000D02*
X131390354Y-68745000D01*
X136890000Y-66066000D02*
X136890000Y-69879000D01*
X137251000Y-72361000D02*
X137251000Y-76124000D01*
X140131000Y-67684000D02*
X140131000Y-74556000D01*
X138891000Y-66703000D02*
X138891000Y-69879000D01*
X138171000Y-72361000D02*
X138171000Y-75874000D01*
X140931000Y-68831000D02*
X140931000Y-73409000D01*
X137050000Y-72361000D02*
X137050000Y-76155000D01*
X137491000Y-66164000D02*
X137491000Y-69879000D01*
X139771000Y-67331000D02*
X139771000Y-74909000D01*
X141211000Y-69490000D02*
X141211000Y-72750000D01*
X137091000Y-72361000D02*
X137091000Y-76150000D01*
X139531000Y-67131000D02*
X139531000Y-75109000D01*
X138011000Y-66309000D02*
X138011000Y-69879000D01*
X138251000Y-72361000D02*
X138251000Y-75843000D01*
X138451000Y-66481000D02*
X138451000Y-69879000D01*
X136890000Y-72361000D02*
X136890000Y-76174000D01*
X137131000Y-66096000D02*
X137131000Y-69879000D01*
X141171000Y-69378000D02*
X141171000Y-72862000D01*
X138891000Y-72361000D02*
X138891000Y-75537000D01*
X137091000Y-66090000D02*
X137091000Y-69879000D01*
X138091000Y-72361000D02*
X138091000Y-75903000D01*
X138811000Y-66658000D02*
X138811000Y-69879000D01*
X136450000Y-66040000D02*
X136450000Y-76200000D01*
X137131000Y-72361000D02*
X137131000Y-76144000D01*
X140611000Y-68290000D02*
X140611000Y-73950000D01*
X138011000Y-72361000D02*
X138011000Y-75931000D01*
X137691000Y-66213000D02*
X137691000Y-69879000D01*
X139291000Y-66954000D02*
X139291000Y-69879000D01*
X138571000Y-72361000D02*
X138571000Y-75704000D01*
X136970000Y-72361000D02*
X136970000Y-76165000D01*
X138771000Y-66637000D02*
X138771000Y-69879000D01*
X136650000Y-66047000D02*
X136650000Y-76193000D01*
X139011000Y-72361000D02*
X139011000Y-75467000D01*
X138051000Y-72361000D02*
X138051000Y-75917000D01*
X140531000Y-68175000D02*
X140531000Y-74065000D01*
X138411000Y-72361000D02*
X138411000Y-75777000D01*
X139491000Y-67100000D02*
X139491000Y-75140000D01*
X140851000Y-68681000D02*
X140851000Y-73559000D01*
X138091000Y-66337000D02*
X138091000Y-69879000D01*
X137331000Y-72361000D02*
X137331000Y-76110000D01*
X138411000Y-66463000D02*
X138411000Y-69879000D01*
X136370000Y-66040000D02*
X136370000Y-76200000D01*
X138371000Y-72361000D02*
X138371000Y-75794000D01*
X138291000Y-72361000D02*
X138291000Y-75827000D01*
X138051000Y-66323000D02*
X138051000Y-69879000D01*
X139211000Y-66899000D02*
X139211000Y-69879000D01*
X137531000Y-66173000D02*
X137531000Y-69879000D01*
X140731000Y-68475000D02*
X140731000Y-73765000D01*
X140091000Y-67642000D02*
X140091000Y-74598000D01*
X138811000Y-72361000D02*
X138811000Y-75582000D01*
X137811000Y-66246000D02*
X137811000Y-69879000D01*
X139651000Y-67228000D02*
X139651000Y-75012000D01*
X139091000Y-72361000D02*
X139091000Y-75418000D01*
X137371000Y-72361000D02*
X137371000Y-76102000D01*
X137531000Y-72361000D02*
X137531000Y-76067000D01*
X140771000Y-68541000D02*
X140771000Y-73699000D01*
X138651000Y-66575000D02*
X138651000Y-69879000D01*
X137811000Y-72361000D02*
X137811000Y-75994000D01*
X138331000Y-66430000D02*
X138331000Y-69879000D01*
X137371000Y-66138000D02*
X137371000Y-69879000D01*
X139051000Y-66797000D02*
X139051000Y-69879000D01*
X141051000Y-69083000D02*
X141051000Y-73157000D01*
X137571000Y-72361000D02*
X137571000Y-76058000D01*
X139131000Y-72361000D02*
X139131000Y-75393000D01*
X137651000Y-66202000D02*
X137651000Y-69879000D01*
X137771000Y-72361000D02*
X137771000Y-76005000D01*
X138691000Y-66595000D02*
X138691000Y-69879000D01*
X139171000Y-72361000D02*
X139171000Y-75367000D01*
X136970000Y-66075000D02*
X136970000Y-69879000D01*
X137731000Y-72361000D02*
X137731000Y-76017000D01*
X138651000Y-72361000D02*
X138651000Y-75665000D01*
X137931000Y-66283000D02*
X137931000Y-69879000D01*
X137731000Y-66223000D02*
X137731000Y-69879000D01*
X139011000Y-66773000D02*
X139011000Y-69879000D01*
X137010000Y-66080000D02*
X137010000Y-69879000D01*
X138611000Y-66556000D02*
X138611000Y-69879000D01*
X137611000Y-66192000D02*
X137611000Y-69879000D01*
X138971000Y-66749000D02*
X138971000Y-69879000D01*
X138331000Y-72361000D02*
X138331000Y-75810000D01*
X137291000Y-72361000D02*
X137291000Y-76117000D01*
X138851000Y-72361000D02*
X138851000Y-75560000D01*
X139691000Y-67262000D02*
X139691000Y-74978000D01*
X137171000Y-72361000D02*
X137171000Y-76138000D01*
X138931000Y-66725000D02*
X138931000Y-69879000D01*
X137691000Y-72361000D02*
X137691000Y-76027000D01*
X140691000Y-68411000D02*
X140691000Y-73829000D01*
X138731000Y-66616000D02*
X138731000Y-69879000D01*
X137891000Y-66270000D02*
X137891000Y-69879000D01*
X139331000Y-66982000D02*
X139331000Y-69879000D01*
X137651000Y-72361000D02*
X137651000Y-76038000D01*
X138531000Y-66517000D02*
X138531000Y-69879000D01*
X139091000Y-66822000D02*
X139091000Y-69879000D01*
X138971000Y-72361000D02*
X138971000Y-75491000D01*
X140371000Y-67964000D02*
X140371000Y-74276000D01*
X137010000Y-72361000D02*
X137010000Y-76160000D01*
X137050000Y-66085000D02*
X137050000Y-69879000D01*
X139451000Y-67070000D02*
X139451000Y-75170000D01*
X139931000Y-67480000D02*
X139931000Y-74760000D01*
X141011000Y-68995000D02*
X141011000Y-73245000D01*
X140331000Y-67914000D02*
X140331000Y-74326000D01*
X137411000Y-66146000D02*
X137411000Y-69879000D01*
X138211000Y-66382000D02*
X138211000Y-69879000D01*
X140811000Y-68610000D02*
X140811000Y-73630000D01*
X137851000Y-72361000D02*
X137851000Y-75982000D01*
X137571000Y-66182000D02*
X137571000Y-69879000D01*
X139851000Y-67404000D02*
X139851000Y-74836000D01*
X138691000Y-72361000D02*
X138691000Y-75645000D01*
X140051000Y-67600000D02*
X140051000Y-74640000D01*
X140291000Y-67866000D02*
X140291000Y-74374000D01*
X137411000Y-72361000D02*
X137411000Y-76094000D01*
X139051000Y-72361000D02*
X139051000Y-75443000D01*
X141251000Y-69610000D02*
X141251000Y-72630000D01*
X141490000Y-71120000D02*
G75*
G03*
X141490000Y-71120000I-5120000J0D01*
G01*
%TO.C,U1*%
X127020000Y-68580000D02*
X127020000Y-66630000D01*
X121900000Y-68580000D02*
X121900000Y-72030000D01*
X121900000Y-68580000D02*
X121900000Y-66630000D01*
X127020000Y-68580000D02*
X127020000Y-70530000D01*
%TO.C,B1*%
X147320000Y-58800000D02*
X142490000Y-58800000D01*
X150620000Y-60070000D02*
X150620000Y-65660000D01*
X142750000Y-63250000D02*
X142490000Y-63250000D01*
X149230000Y-58800000D02*
X149230000Y-66930000D01*
X149230000Y-65660000D02*
X150620000Y-65660000D01*
X149520000Y-59760000D02*
X149520000Y-58460000D01*
X149230000Y-58800000D02*
X147320000Y-58800000D01*
X142490000Y-62480000D02*
X142750000Y-62480000D01*
X142490000Y-62480000D02*
X142490000Y-58800000D01*
X149230000Y-66930000D02*
X147320000Y-66930000D01*
X149480000Y-60070000D02*
X149480000Y-65660000D01*
X149230000Y-60070000D02*
X150620000Y-60070000D01*
X142750000Y-62480000D02*
X142750000Y-63250000D01*
X142490000Y-66930000D02*
X147320000Y-66930000D01*
X149520000Y-58460000D02*
X147320000Y-58460000D01*
X142490000Y-63250000D02*
X142490000Y-66930000D01*
X150370000Y-60070000D02*
X150370000Y-65660000D01*
%TO.C,R1*%
X118140000Y-84460000D02*
X110460000Y-84460000D01*
X118140000Y-84580000D02*
X110460000Y-84580000D01*
X118140000Y-83740000D02*
X110460000Y-83740000D01*
X118140000Y-83620000D02*
X110460000Y-83620000D01*
X118140000Y-84700000D02*
X110460000Y-84700000D01*
X118140000Y-83380000D02*
X110460000Y-83380000D01*
X118140000Y-84220000D02*
X110460000Y-84220000D01*
X118140000Y-83860000D02*
X110460000Y-83860000D01*
X107980000Y-86340000D02*
X107980000Y-85560000D01*
X120620000Y-85560000D02*
X120620000Y-86340000D01*
X118140000Y-84100000D02*
X110460000Y-84100000D01*
X107980000Y-81300000D02*
X107980000Y-82080000D01*
X120620000Y-86340000D02*
X107980000Y-86340000D01*
X118140000Y-83140000D02*
X110460000Y-83140000D01*
X118140000Y-83980000D02*
X110460000Y-83980000D01*
X118140000Y-83260000D02*
X110460000Y-83260000D01*
X118140000Y-84820000D02*
X118140000Y-82900000D01*
X118140000Y-82900000D02*
X110460000Y-82900000D01*
X118140000Y-84340000D02*
X110460000Y-84340000D01*
X118140000Y-83020000D02*
X110460000Y-83020000D01*
X118140000Y-84820000D02*
X110460000Y-84820000D01*
X120620000Y-81300000D02*
X107980000Y-81300000D01*
X110460000Y-84820000D02*
X110460000Y-82900000D01*
X118140000Y-83500000D02*
X110460000Y-83500000D01*
X120620000Y-82080000D02*
X120620000Y-81300000D01*
%TD*%
M02*
