%TF.GenerationSoftware,KiCad,Pcbnew,(6.0.4)*%
%TF.CreationDate,2022-05-29T20:56:59+05:30*%
%TF.ProjectId,bike turning signal indicator circuit,62696b65-2074-4757-926e-696e67207369,rev?*%
%TF.SameCoordinates,Original*%
%TF.FileFunction,Copper,L1,Top*%
%TF.FilePolarity,Positive*%
%FSLAX46Y46*%
G04 Gerber Fmt 4.6, Leading zero omitted, Abs format (unit mm)*
G04 Created by KiCad (PCBNEW (6.0.4)) date 2022-05-29 20:56:59*
%MOMM*%
%LPD*%
G01*
G04 APERTURE LIST*
G04 Aperture macros list*
%AMRoundRect*
0 Rectangle with rounded corners*
0 $1 Rounding radius*
0 $2 $3 $4 $5 $6 $7 $8 $9 X,Y pos of 4 corners*
0 Add a 4 corners polygon primitive as box body*
4,1,4,$2,$3,$4,$5,$6,$7,$8,$9,$2,$3,0*
0 Add four circle primitives for the rounded corners*
1,1,$1+$1,$2,$3*
1,1,$1+$1,$4,$5*
1,1,$1+$1,$6,$7*
1,1,$1+$1,$8,$9*
0 Add four rect primitives between the rounded corners*
20,1,$1+$1,$2,$3,$4,$5,0*
20,1,$1+$1,$4,$5,$6,$7,0*
20,1,$1+$1,$6,$7,$8,$9,0*
20,1,$1+$1,$8,$9,$2,$3,0*%
G04 Aperture macros list end*
%TA.AperFunction,SMDPad,CuDef*%
%ADD10RoundRect,0.187500X-0.187500X-0.712500X0.187500X-0.712500X0.187500X0.712500X-0.187500X0.712500X0*%
%TD*%
%TA.AperFunction,SMDPad,CuDef*%
%ADD11RoundRect,0.150000X-0.150000X-0.750000X0.150000X-0.750000X0.150000X0.750000X-0.150000X0.750000X0*%
%TD*%
%TA.AperFunction,SMDPad,CuDef*%
%ADD12RoundRect,0.225000X-0.425000X-0.225000X0.425000X-0.225000X0.425000X0.225000X-0.425000X0.225000X0*%
%TD*%
%TA.AperFunction,ComponentPad*%
%ADD13R,2.400000X2.400000*%
%TD*%
%TA.AperFunction,ComponentPad*%
%ADD14O,2.400000X2.400000*%
%TD*%
%TA.AperFunction,ComponentPad*%
%ADD15C,3.000000*%
%TD*%
%TA.AperFunction,ComponentPad*%
%ADD16O,3.000000X3.000000*%
%TD*%
%TA.AperFunction,ComponentPad*%
%ADD17R,1.800000X1.800000*%
%TD*%
%TA.AperFunction,ComponentPad*%
%ADD18C,1.800000*%
%TD*%
%TA.AperFunction,ComponentPad*%
%ADD19R,2.000000X2.000000*%
%TD*%
%TA.AperFunction,ComponentPad*%
%ADD20C,2.000000*%
%TD*%
%TA.AperFunction,SMDPad,CuDef*%
%ADD21RoundRect,0.150000X0.150000X-0.825000X0.150000X0.825000X-0.150000X0.825000X-0.150000X-0.825000X0*%
%TD*%
%TA.AperFunction,ComponentPad*%
%ADD22R,3.000000X3.000000*%
%TD*%
%TA.AperFunction,Conductor*%
%ADD23C,0.500000*%
%TD*%
G04 APERTURE END LIST*
D10*
%TO.P,SW1,1,A*%
%TO.N,Net-(D3-Pad1)*%
X128225000Y-80380000D03*
X125775000Y-80380000D03*
D11*
%TO.P,SW1,2,B*%
%TO.N,Net-(B1-Pad2)*%
X127000000Y-80380000D03*
D12*
%TO.P,SW1,MP*%
%TO.N,N/C*%
X128850000Y-82330000D03*
X125150000Y-82330000D03*
%TD*%
D13*
%TO.P,D3,1,K*%
%TO.N,Net-(D3-Pad1)*%
X106680000Y-60960000D03*
D14*
%TO.P,D3,2,A*%
%TO.N,Net-(D2-Pad2)*%
X119380000Y-60960000D03*
%TD*%
D15*
%TO.P,R3,1*%
%TO.N,Net-(R2-Pad2)*%
X124460000Y-60960000D03*
D16*
%TO.P,R3,2*%
%TO.N,Net-(C1-Pad1)*%
X135860000Y-60960000D03*
%TD*%
D17*
%TO.P,D4,1,K*%
%TO.N,Net-(D1-Pad1)*%
X114300000Y-76200000D03*
D18*
%TO.P,D4,2,A*%
%TO.N,Net-(D3-Pad1)*%
X116840000Y-76200000D03*
%TD*%
D15*
%TO.P,R2,1*%
%TO.N,Net-(B1-Pad1)*%
X142860000Y-78740000D03*
D16*
%TO.P,R2,2*%
%TO.N,Net-(R2-Pad2)*%
X131460000Y-78740000D03*
%TD*%
D17*
%TO.P,D1,1,K*%
%TO.N,Net-(D1-Pad1)*%
X106680000Y-76200000D03*
D18*
%TO.P,D1,2,A*%
%TO.N,Net-(D1-Pad2)*%
X109220000Y-76200000D03*
%TD*%
D13*
%TO.P,D2,1,K*%
%TO.N,Net-(D1-Pad2)*%
X105410000Y-68580000D03*
D14*
%TO.P,D2,2,A*%
%TO.N,Net-(D2-Pad2)*%
X118110000Y-68580000D03*
%TD*%
D19*
%TO.P,C1,1*%
%TO.N,Net-(C1-Pad1)*%
X134620000Y-71120000D03*
D20*
%TO.P,C1,2*%
%TO.N,Net-(B1-Pad2)*%
X138120000Y-71120000D03*
%TD*%
D21*
%TO.P,U1,1,GND*%
%TO.N,Net-(D2-Pad2)*%
X122555000Y-71055000D03*
%TO.P,U1,2,TR*%
%TO.N,Net-(U1-Pad2)*%
X123825000Y-71055000D03*
%TO.P,U1,3,Q*%
%TO.N,Net-(R1-Pad1)*%
X125095000Y-71055000D03*
%TO.P,U1,4,R*%
%TO.N,Net-(B1-Pad1)*%
X126365000Y-71055000D03*
%TO.P,U1,5,CV*%
%TO.N,unconnected-(U1-Pad5)*%
X126365000Y-66105000D03*
%TO.P,U1,6,THR*%
%TO.N,Net-(U1-Pad2)*%
X125095000Y-66105000D03*
%TO.P,U1,7,DIS*%
%TO.N,Net-(R2-Pad2)*%
X123825000Y-66105000D03*
%TO.P,U1,8,VCC*%
%TO.N,Net-(B1-Pad1)*%
X122555000Y-66105000D03*
%TD*%
D22*
%TO.P,B1,1,Pin_1*%
%TO.N,Net-(B1-Pad1)*%
X147320000Y-60960000D03*
D15*
%TO.P,B1,2,Pin_2*%
%TO.N,Net-(B1-Pad2)*%
X147320000Y-64840000D03*
%TD*%
%TO.P,R1,1*%
%TO.N,Net-(R1-Pad1)*%
X120000000Y-83820000D03*
D16*
%TO.P,R1,2*%
%TO.N,Net-(D1-Pad1)*%
X108600000Y-83820000D03*
%TD*%
D23*
%TO.N,Net-(B1-Pad1)*%
X122555000Y-66675000D02*
X126365000Y-70485000D01*
X122555000Y-66105000D02*
X122555000Y-66675000D01*
X121920000Y-58420000D02*
X127000000Y-58420000D01*
X127000000Y-58420000D02*
X132159520Y-63579520D01*
X126365000Y-70485000D02*
X126365000Y-71055000D01*
X139340978Y-78740000D02*
X142860000Y-78740000D01*
X132159520Y-63579520D02*
X132159520Y-71558542D01*
X144780000Y-58420000D02*
X147320000Y-60960000D01*
X121920000Y-60960000D02*
X121920000Y-58420000D01*
X122555000Y-66105000D02*
X122555000Y-61595000D01*
X122555000Y-61595000D02*
X121920000Y-60960000D01*
X132159520Y-71558542D02*
X139340978Y-78740000D01*
X127000000Y-58420000D02*
X144780000Y-58420000D01*
%TO.N,Net-(B1-Pad2)*%
X144809511Y-68609511D02*
X144180000Y-67980000D01*
X127000000Y-80380000D02*
X127000000Y-83229520D01*
X141040000Y-71120000D02*
X144180000Y-67980000D01*
X142240000Y-83820000D02*
X144809511Y-81250489D01*
X127590480Y-83820000D02*
X142240000Y-83820000D01*
X138120000Y-71120000D02*
X141040000Y-71120000D01*
X127000000Y-83229520D02*
X127590480Y-83820000D01*
X144809511Y-81250489D02*
X144809511Y-68609511D01*
X144180000Y-67980000D02*
X147320000Y-64840000D01*
%TO.N,Net-(C1-Pad1)*%
X135860000Y-60960000D02*
X135860000Y-69880000D01*
X135860000Y-69880000D02*
X134620000Y-71120000D01*
%TO.N,Net-(D1-Pad1)*%
X108600000Y-79360000D02*
X108600000Y-83820000D01*
X114300000Y-76200000D02*
X111760000Y-76200000D01*
X111760000Y-76200000D02*
X109220000Y-78740000D01*
X109220000Y-78740000D02*
X108600000Y-79360000D01*
X109220000Y-78740000D02*
X106680000Y-76200000D01*
%TO.N,Net-(D1-Pad2)*%
X109220000Y-72390000D02*
X105410000Y-68580000D01*
X109220000Y-76200000D02*
X109220000Y-72390000D01*
%TO.N,Net-(D2-Pad2)*%
X120650000Y-71120000D02*
X122490000Y-71120000D01*
X118110000Y-62230000D02*
X119380000Y-60960000D01*
X118110000Y-68580000D02*
X120650000Y-71120000D01*
X118110000Y-68580000D02*
X118110000Y-62230000D01*
X122490000Y-71120000D02*
X122555000Y-71055000D01*
%TO.N,Net-(D3-Pad1)*%
X125775000Y-79857151D02*
X126892151Y-78740000D01*
X123925479Y-80886694D02*
X124481694Y-80330479D01*
X127107849Y-78740000D02*
X128225000Y-79857151D01*
X124481694Y-80330479D02*
X125725479Y-80330479D01*
X116840000Y-76200000D02*
X111760000Y-81280000D01*
X126892151Y-78740000D02*
X127107849Y-78740000D01*
X106680000Y-66040000D02*
X116840000Y-76200000D01*
X125725479Y-80330479D02*
X125775000Y-80380000D01*
X128225000Y-79857151D02*
X128225000Y-80380000D01*
X111760000Y-86360000D02*
X114300000Y-88900000D01*
X111760000Y-81280000D02*
X111760000Y-86360000D01*
X114300000Y-88900000D02*
X122414635Y-88900000D01*
X125775000Y-80380000D02*
X125775000Y-79857151D01*
X122414635Y-88900000D02*
X123925479Y-87389156D01*
X123925479Y-87389156D02*
X123925479Y-80886694D01*
X106680000Y-60960000D02*
X106680000Y-66040000D01*
%TO.N,Net-(R1-Pad1)*%
X120000000Y-83820000D02*
X120000000Y-80660000D01*
X125095000Y-75565000D02*
X125095000Y-71055000D01*
X120000000Y-80660000D02*
X125095000Y-75565000D01*
%TO.N,Net-(R2-Pad2)*%
X124460000Y-60960000D02*
X123825000Y-61595000D01*
X127635000Y-64135000D02*
X129540000Y-66040000D01*
X123825000Y-61595000D02*
X123825000Y-64135000D01*
X129540000Y-73660000D02*
X131460000Y-75580000D01*
X129540000Y-66040000D02*
X129540000Y-73660000D01*
X131460000Y-75580000D02*
X131460000Y-78740000D01*
X123825000Y-64135000D02*
X123825000Y-66105000D01*
X123825000Y-64135000D02*
X127635000Y-64135000D01*
%TO.N,Net-(U1-Pad2)*%
X121949511Y-81250489D02*
X127114520Y-76085480D01*
X127114520Y-76085480D02*
X127114520Y-68694520D01*
X125095000Y-66675000D02*
X125095000Y-66105000D01*
X123825000Y-71055000D02*
X123825000Y-71755000D01*
X121949511Y-86360000D02*
X121949511Y-81250489D01*
X116840000Y-81280000D02*
X116840000Y-84888513D01*
X123825000Y-71755000D02*
X121920000Y-73660000D01*
X127114520Y-68694520D02*
X125095000Y-66675000D01*
X118311487Y-86360000D02*
X121949511Y-86360000D01*
X121920000Y-73660000D02*
X121920000Y-76200000D01*
X116840000Y-84888513D02*
X118311487Y-86360000D01*
X121920000Y-76200000D02*
X116840000Y-81280000D01*
%TD*%
M02*
